<svg width="200" height="42" viewBox="0 0 200 42" fill="none" xmlns="http://www.w3.org/2000/svg">
<path fill-rule="evenodd" clip-rule="evenodd" d="M4.26571 36.5724L3.3892 38.6372H5.14222L4.26571 36.5724ZM6.08647 40.8881L5.48784 39.4718H3.04383L2.4452 40.8881H1.35815L4.20699 34.6255H4.35864L7.19894 40.8881H6.08647Z" fill="#1F232B" fill-opacity="0.58"/>
<path fill-rule="evenodd" clip-rule="evenodd" d="M14.2664 40.9725H14.1317L11.2744 34.71H12.4794L14.2157 38.8233L15.9434 34.71H17.1151L14.2664 40.9725Z" fill="#1F232B" fill-opacity="0.58"/>
<path fill-rule="evenodd" clip-rule="evenodd" d="M22.4463 40.8882H23.4999V34.71H22.4463V40.8882Z" fill="#1F232B" fill-opacity="0.58"/>
<path fill-rule="evenodd" clip-rule="evenodd" d="M31.7316 36.5724L30.8551 38.6372H32.6081L31.7316 36.5724ZM33.5522 40.8881L32.9537 39.4718H30.5096L29.911 40.8881H28.824L31.6728 34.6255H31.8245L34.6648 40.8881H33.5522Z" fill="#1F232B" fill-opacity="0.58"/>
<path fill-rule="evenodd" clip-rule="evenodd" d="M41.9939 35.6711V40.8882H40.9406V35.6711H38.9768V34.71H43.9492V35.6711H41.9939Z" fill="#1F232B" fill-opacity="0.58"/>
<path fill-rule="evenodd" clip-rule="evenodd" d="M49.5078 40.9752H50.5615V34.71H49.5078V40.9752Z" fill="#1F232B" fill-opacity="0.58"/>
<path fill-rule="evenodd" clip-rule="evenodd" d="M59.5012 35.5526C58.321 35.5526 57.5037 36.5137 57.5037 37.8031C57.5037 39.0839 58.321 40.0536 59.5012 40.0536C60.6726 40.0536 61.4902 39.0839 61.4902 37.8031C61.4902 36.5137 60.6726 35.5526 59.5012 35.5526ZM59.4676 40.9893C57.6806 40.9893 56.3743 39.6318 56.3743 37.8031C56.3743 35.9658 57.7398 34.6084 59.5264 34.6084C61.3134 34.6084 62.6198 35.9658 62.6198 37.8031C62.6198 39.6318 61.2542 40.9893 59.4676 40.9893Z" fill="#1F232B" fill-opacity="0.58"/>
<path fill-rule="evenodd" clip-rule="evenodd" d="M73.3109 41.0054L69.4422 36.9261V40.9748H68.3884V34.6251L68.5572 34.5918L72.3753 38.6123V34.7095H73.4289V40.9805L73.3109 41.0054Z" fill="#1F232B" fill-opacity="0.58"/>
<path fill-rule="evenodd" clip-rule="evenodd" d="M87.3289 40.9893C86.6293 40.9893 85.93 40.7362 85.3906 40.3825L85.7528 39.4383C86.2415 39.792 86.8316 40.0111 87.3625 40.0111C88.0118 40.0111 88.2982 39.6318 88.2982 39.2023C88.2982 38.772 88.1129 38.5027 87.135 38.0894C86.0562 37.6344 85.6685 37.0779 85.6685 36.3365C85.6685 35.4433 86.4102 34.6084 87.6999 34.6084C88.2982 34.6084 88.8883 34.8111 89.2505 35.0556L88.9134 35.9828C88.585 35.7552 88.0958 35.544 87.6744 35.544C87.0255 35.544 86.7222 35.8984 86.7222 36.311C86.7222 36.7242 87.0255 36.9687 87.7925 37.3054C89.0145 37.837 89.3686 38.334 89.3686 39.1435C89.3686 40.1379 88.6016 40.9893 87.3289 40.9893Z" fill="#1F232B" fill-opacity="0.58"/>
<path fill-rule="evenodd" clip-rule="evenodd" d="M97.5659 38.2923V40.9752H96.5121V38.2839L94.3379 34.71H95.5429L97.0602 37.3227L98.5603 34.71H99.7402L97.5659 38.2923Z" fill="#1F232B" fill-opacity="0.58"/>
<path fill-rule="evenodd" clip-rule="evenodd" d="M106.479 40.9893C105.779 40.9893 105.08 40.7362 104.541 40.3825L104.903 39.4383C105.392 39.792 105.982 40.0111 106.513 40.0111C107.162 40.0111 107.448 39.6318 107.448 39.2023C107.448 38.772 107.263 38.5027 106.285 38.0894C105.206 37.6344 104.819 37.0779 104.819 36.3365C104.819 35.4433 105.56 34.6084 106.85 34.6084C107.448 34.6084 108.039 34.8111 108.401 35.0556L108.064 35.9828C107.735 35.7552 107.246 35.544 106.825 35.544C106.176 35.544 105.872 35.8984 105.872 36.311C105.872 36.7242 106.176 36.9687 106.943 37.3054C108.165 37.837 108.519 38.334 108.519 39.1435C108.519 40.1379 107.752 40.9893 106.479 40.9893Z" fill="#1F232B" fill-opacity="0.58"/>
<path fill-rule="evenodd" clip-rule="evenodd" d="M116.716 35.6711V40.9752H115.663V35.6711H113.699V34.71H118.671V35.6711H116.716Z" fill="#1F232B" fill-opacity="0.58"/>
<path fill-rule="evenodd" clip-rule="evenodd" d="M124.188 40.8877V34.7095H127.956V35.6706H125.241V37.289H127.694V38.2161H125.241V39.9265H127.956V40.8877H124.188Z" fill="#1F232B" fill-opacity="0.58"/>
<path fill-rule="evenodd" clip-rule="evenodd" d="M138.967 40.8877L139.027 37.1877L136.936 40.1378H136.81L134.692 37.1362L134.779 40.8877H133.742L133.744 34.6338L133.904 34.6167L136.903 38.7131L139.834 34.6167L140.002 34.6338L140.004 40.8877H138.967Z" fill="#1F232B" fill-opacity="0.58"/>
<path fill-rule="evenodd" clip-rule="evenodd" d="M147.374 40.9893C146.675 40.9893 145.975 40.7362 145.436 40.3825L145.798 39.4383C146.287 39.792 146.877 40.0111 147.408 40.0111C148.057 40.0111 148.344 39.6318 148.344 39.2023C148.344 38.772 148.158 38.5027 147.181 38.0894C146.102 37.6344 145.714 37.0779 145.714 36.3365C145.714 35.4433 146.456 34.6084 147.745 34.6084C148.344 34.6084 148.934 34.8111 149.296 35.0556L148.959 35.9828C148.63 35.7552 148.141 35.544 147.72 35.544C147.071 35.544 146.768 35.8984 146.768 36.311C146.768 36.7242 147.071 36.9687 147.838 37.3054C149.06 37.837 149.414 38.334 149.414 39.1435C149.414 40.1379 148.647 40.9893 147.374 40.9893Z" fill="#1F232B" fill-opacity="0.58"/>
<path fill-rule="evenodd" clip-rule="evenodd" d="M14.8541 27.9053C6.2243 27.9053 0 22.0842 0 13.9793C0 6.02167 6.37691 0.0166016 14.8541 0.0166016C18.5584 0.0166016 21.8808 1.26897 24.0953 2.59536L22.7486 5.21604C20.3811 3.88989 17.2884 3.07573 14.6159 3.12642C7.91866 3.25345 4.21665 8.07975 4.24674 13.9793C4.27723 19.9289 8.35213 24.7263 14.8541 24.824C17.5271 24.8642 20.6483 23.8005 23.016 22.4744L24.0953 25.3262C21.8808 26.6526 18.5584 27.9053 14.8541 27.9053Z" fill="#1F232B" fill-opacity="0.96"/>
<path fill-rule="evenodd" clip-rule="evenodd" d="M36.4317 12.5266C33.0203 12.5266 30.7463 15.09 30.7463 18.8931C30.7463 22.6965 33.0203 25.2595 36.4317 25.2595C39.8008 25.2595 42.0749 22.6965 42.0749 18.8931C42.0749 15.09 39.8008 12.5266 36.4317 12.5266ZM36.4319 27.9051C31.0414 27.9051 27.4617 23.8537 27.4617 18.893C27.4617 13.9323 31.0414 9.88086 36.4319 9.88086C41.8225 9.88086 45.3599 13.9323 45.3599 18.893C45.3599 23.8537 41.8225 27.9051 36.4319 27.9051Z" fill="#1F232B" fill-opacity="0.96"/>
<path fill-rule="evenodd" clip-rule="evenodd" d="M95.3995 16.2294C93.9256 12.8769 91.758 12.5302 89.9373 12.5591C86.4985 12.6136 84.5619 15.478 84.5865 18.9116C84.6117 22.4088 86.4115 25.2462 90.3997 25.2751C92.5475 25.2907 94.3013 24.0902 95.3995 21.836V16.2294ZM95.4048 27.9048L95.3705 26.4309C93.5498 27.7603 91.2037 27.925 90.0507 27.9048C85.082 27.8181 81.3018 24.2408 81.3018 18.9947C81.3018 13.8736 85.0532 9.84218 89.9372 9.89994C92.2532 9.92737 94.149 10.4463 95.4967 11.5289L95.41 0.0161133H98.7367L98.7656 27.9048H95.4048Z" fill="#1F232B" fill-opacity="0.96"/>
<path fill-rule="evenodd" clip-rule="evenodd" d="M104.589 27.9059H107.915V10.2183H104.589V27.9059Z" fill="#1F232B" fill-opacity="0.96"/>
<path fill-rule="evenodd" clip-rule="evenodd" d="M147.204 17.3674C146.992 14.6122 145.424 12.4506 142.288 12.4506C139.405 12.4506 137.625 14.3156 137.244 17.3674H147.204ZM150.171 19.9104H137.117C137.498 22.962 139.194 25.2507 143.771 25.2507C145.255 25.2507 147.035 24.8271 148.688 24.2761L149.281 27.1157C147.246 27.7091 145.128 28.1329 143.474 28.1329C137.074 28.1329 133.853 24.1064 133.853 18.9781C133.853 14.1039 136.99 9.65332 142.499 9.65332C147.543 9.65332 150.298 13.3836 150.298 18.215C150.298 18.8087 150.298 19.2749 150.171 19.9104Z" fill="#1F232B" fill-opacity="0.96"/>
<path fill-rule="evenodd" clip-rule="evenodd" d="M108.376 4.92956C108.376 3.76439 107.431 2.81982 106.266 2.81982C105.101 2.81982 104.156 3.76439 104.156 4.92956C104.156 6.09472 105.101 7.03929 106.266 7.03929C107.431 7.03929 108.376 6.09472 108.376 4.92956Z" fill="#1F232B" fill-opacity="0.96"/>
<path fill-rule="evenodd" clip-rule="evenodd" d="M53.1715 15.774V27.9383H49.823V10.1373H53.0018V13.104C54.6971 10.8999 57.0284 9.79785 59.3593 9.79785V13.0614C56.7742 13.0614 54.4003 13.9942 53.1715 15.774Z" fill="#1F232B" fill-opacity="0.96"/>
<path fill-rule="evenodd" clip-rule="evenodd" d="M126.08 27.9095V16.7201C126.08 13.9653 125.063 12.5664 122.477 12.5664C120.485 12.5664 118.409 13.9653 117.052 15.4487V27.9095H113.704V10.1084H116.883V12.821C118.748 10.9559 121.079 9.76904 123.452 9.76904C127.563 9.76904 129.428 12.27 129.428 15.8301V27.9095H126.08Z" fill="#1F232B" fill-opacity="0.96"/>
<path fill-rule="evenodd" clip-rule="evenodd" d="M73.2794 20.8206C71.539 19.8673 70.4615 19.4116 68.5555 19.4116C66.318 19.4116 64.8677 20.4062 64.8677 22.3535C64.8677 24.2599 66.318 25.337 68.887 25.337C70.7101 25.337 72.202 24.4254 73.2794 23.1824V20.8206ZM73.445 27.6162V25.7928C72.0359 27.1604 70.2129 27.9476 68.058 27.9476C64.6188 27.9476 61.7595 25.9174 61.7595 22.3535C61.7595 19.2044 64.4532 16.9253 68.0167 16.9253C70.4202 16.9253 71.7874 17.464 73.2794 18.0857V17.0495C73.2794 14.1077 71.9117 12.7401 68.721 12.7401C67.0635 12.7401 65.3647 13.1131 64.163 13.6102L63.6243 10.7928C65.2405 10.2953 67.395 9.88086 69.1355 9.88086C74.1079 9.88086 76.4697 12.243 76.4697 17.2567V27.6162H73.445Z" fill="#1F232B" fill-opacity="0.96"/>
<path fill-rule="evenodd" clip-rule="evenodd" d="M185.116 40.441C189.107 41.1527 193.078 40.3255 197.031 37.9562L199.971 36.2156L193.726 25.7946L191.318 27.2278L196.374 35.651C191.71 38.4459 186.117 38.9929 182.43 36.4392C180.046 34.7885 177.453 30.5286 174.262 25.2036L171.935 26.5983L175.832 33.1017C178.147 37.0544 180.921 39.6931 185.116 40.441Z" fill="#AB4143"/>
<path fill-rule="evenodd" clip-rule="evenodd" d="M173.906 0.512932C169.915 -0.198785 165.944 0.628472 161.99 2.99775L159.051 4.73835L165.296 15.1593L167.704 13.7262L162.648 5.30288C167.312 2.50798 172.905 1.961 176.591 4.51477C178.975 6.16539 181.569 10.4254 184.76 15.7503L187.087 14.3556L183.19 7.85226C180.875 3.89955 178.101 1.26083 173.906 0.512932Z" fill="#28B4E0"/>
<path fill-rule="evenodd" clip-rule="evenodd" d="M199.458 14.8554C200.17 10.8644 199.343 6.89281 196.973 2.93954L195.233 0L184.812 6.24545L186.245 8.65324L194.668 3.5971C197.463 8.26074 198.01 13.8544 195.456 17.5406C193.806 19.9246 189.546 22.5179 184.221 25.7093L185.616 28.0365L192.119 24.1389C196.072 21.8239 198.71 19.0505 199.458 14.8554Z" fill="#1784FF"/>
<path fill-rule="evenodd" clip-rule="evenodd" d="M159.563 26.0649C158.852 30.0559 159.679 34.0274 162.048 37.9807L163.789 40.9202L174.21 34.6748L172.777 32.267L164.353 37.3232C161.559 32.6595 161.012 27.0659 163.565 23.3796C165.216 20.9956 169.476 18.4023 174.801 15.2109L173.406 12.8838L166.903 16.7813C162.95 19.0964 160.311 21.8698 159.563 26.0649Z" fill="#D45848"/>
</svg>
